<mxfile host="app.diagrams.net" agent="Mozilla/5.0 (Macintosh; Intel Mac OS X 10_15_7) AppleWebKit/537.36 (KHTML, like Gecko) Chrome/129.0.0.0 Safari/537.36" version="24.7.16">
  <diagram name="Page-1" id="pOZ8EI1yb7Sy-3e64-F7">
    <mxGraphModel dx="1434" dy="819" grid="1" gridSize="10" guides="1" tooltips="1" connect="1" arrows="1" fold="1" page="1" pageScale="1" pageWidth="827" pageHeight="1169" math="0" shadow="0">
      <root>
        <mxCell id="0" />
        <mxCell id="1" parent="0" />
        <mxCell id="a-QrM22J6SxzKLUGZ9e7-30" style="edgeStyle=orthogonalEdgeStyle;rounded=0;orthogonalLoop=1;jettySize=auto;html=1;exitX=0.5;exitY=1;exitDx=0;exitDy=0;entryX=0.5;entryY=0;entryDx=0;entryDy=0;" edge="1" parent="1" source="a-QrM22J6SxzKLUGZ9e7-1" target="a-QrM22J6SxzKLUGZ9e7-2">
          <mxGeometry relative="1" as="geometry" />
        </mxCell>
        <mxCell id="a-QrM22J6SxzKLUGZ9e7-1" value="Start" style="rounded=1;whiteSpace=wrap;html=1;" vertex="1" parent="1">
          <mxGeometry x="380" y="180" width="120" height="60" as="geometry" />
        </mxCell>
        <mxCell id="a-QrM22J6SxzKLUGZ9e7-29" value="" style="edgeStyle=orthogonalEdgeStyle;rounded=0;orthogonalLoop=1;jettySize=auto;html=1;" edge="1" parent="1" source="a-QrM22J6SxzKLUGZ9e7-2" target="a-QrM22J6SxzKLUGZ9e7-3">
          <mxGeometry relative="1" as="geometry" />
        </mxCell>
        <mxCell id="a-QrM22J6SxzKLUGZ9e7-2" value="Generate a random word" style="rounded=1;whiteSpace=wrap;html=1;" vertex="1" parent="1">
          <mxGeometry x="380" y="280" width="120" height="50" as="geometry" />
        </mxCell>
        <mxCell id="a-QrM22J6SxzKLUGZ9e7-28" style="edgeStyle=orthogonalEdgeStyle;rounded=0;orthogonalLoop=1;jettySize=auto;html=1;exitX=0.5;exitY=1;exitDx=0;exitDy=0;entryX=0.5;entryY=0;entryDx=0;entryDy=0;" edge="1" parent="1" source="a-QrM22J6SxzKLUGZ9e7-3" target="a-QrM22J6SxzKLUGZ9e7-4">
          <mxGeometry relative="1" as="geometry" />
        </mxCell>
        <mxCell id="a-QrM22J6SxzKLUGZ9e7-3" value="Generate as many blanks as letters in word" style="rounded=1;whiteSpace=wrap;html=1;" vertex="1" parent="1">
          <mxGeometry x="380" y="370" width="120" height="60" as="geometry" />
        </mxCell>
        <mxCell id="a-QrM22J6SxzKLUGZ9e7-4" value="Ask the user to guess a letter" style="rounded=1;whiteSpace=wrap;html=1;" vertex="1" parent="1">
          <mxGeometry x="380" y="460" width="120" height="60" as="geometry" />
        </mxCell>
        <mxCell id="a-QrM22J6SxzKLUGZ9e7-9" style="edgeStyle=orthogonalEdgeStyle;rounded=0;orthogonalLoop=1;jettySize=auto;html=1;" edge="1" parent="1" source="a-QrM22J6SxzKLUGZ9e7-5" target="a-QrM22J6SxzKLUGZ9e7-7">
          <mxGeometry relative="1" as="geometry" />
        </mxCell>
        <mxCell id="a-QrM22J6SxzKLUGZ9e7-10" style="edgeStyle=orthogonalEdgeStyle;rounded=0;orthogonalLoop=1;jettySize=auto;html=1;entryX=0.5;entryY=0;entryDx=0;entryDy=0;" edge="1" parent="1" source="a-QrM22J6SxzKLUGZ9e7-5" target="a-QrM22J6SxzKLUGZ9e7-8">
          <mxGeometry relative="1" as="geometry">
            <mxPoint x="600" y="770" as="targetPoint" />
          </mxGeometry>
        </mxCell>
        <mxCell id="a-QrM22J6SxzKLUGZ9e7-5" value="Is the letter guessed&amp;nbsp;&lt;div&gt;correct in the word?&amp;nbsp;&lt;/div&gt;" style="html=1;whiteSpace=wrap;aspect=fixed;shape=isoRectangle;" vertex="1" parent="1">
          <mxGeometry x="365" y="560" width="166.67" height="100" as="geometry" />
        </mxCell>
        <mxCell id="a-QrM22J6SxzKLUGZ9e7-13" value="" style="edgeStyle=orthogonalEdgeStyle;rounded=0;orthogonalLoop=1;jettySize=auto;html=1;" edge="1" parent="1" source="a-QrM22J6SxzKLUGZ9e7-7" target="a-QrM22J6SxzKLUGZ9e7-11">
          <mxGeometry relative="1" as="geometry" />
        </mxCell>
        <mxCell id="a-QrM22J6SxzKLUGZ9e7-7" value="Replace the blank with the letter" style="rounded=1;whiteSpace=wrap;html=1;" vertex="1" parent="1">
          <mxGeometry x="220" y="680" width="120" height="60" as="geometry" />
        </mxCell>
        <mxCell id="a-QrM22J6SxzKLUGZ9e7-15" value="" style="edgeStyle=orthogonalEdgeStyle;rounded=0;orthogonalLoop=1;jettySize=auto;html=1;" edge="1" parent="1" source="a-QrM22J6SxzKLUGZ9e7-8" target="a-QrM22J6SxzKLUGZ9e7-12">
          <mxGeometry relative="1" as="geometry" />
        </mxCell>
        <mxCell id="a-QrM22J6SxzKLUGZ9e7-8" value="Lose a life" style="rounded=1;whiteSpace=wrap;html=1;" vertex="1" parent="1">
          <mxGeometry x="540" y="680" width="120" height="60" as="geometry" />
        </mxCell>
        <mxCell id="a-QrM22J6SxzKLUGZ9e7-22" style="edgeStyle=orthogonalEdgeStyle;rounded=0;orthogonalLoop=1;jettySize=auto;html=1;" edge="1" parent="1" source="a-QrM22J6SxzKLUGZ9e7-11" target="a-QrM22J6SxzKLUGZ9e7-17">
          <mxGeometry relative="1" as="geometry" />
        </mxCell>
        <mxCell id="a-QrM22J6SxzKLUGZ9e7-23" style="edgeStyle=orthogonalEdgeStyle;rounded=0;orthogonalLoop=1;jettySize=auto;html=1;entryX=0;entryY=0.5;entryDx=0;entryDy=0;" edge="1" parent="1" source="a-QrM22J6SxzKLUGZ9e7-11" target="a-QrM22J6SxzKLUGZ9e7-4">
          <mxGeometry relative="1" as="geometry">
            <Array as="points">
              <mxPoint x="190" y="825" />
              <mxPoint x="190" y="490" />
            </Array>
          </mxGeometry>
        </mxCell>
        <mxCell id="a-QrM22J6SxzKLUGZ9e7-11" value="Are all the blanks&amp;nbsp;&lt;div&gt;filled?&lt;/div&gt;" style="html=1;whiteSpace=wrap;aspect=fixed;shape=isoRectangle;" vertex="1" parent="1">
          <mxGeometry x="205" y="780" width="150" height="90" as="geometry" />
        </mxCell>
        <mxCell id="a-QrM22J6SxzKLUGZ9e7-21" style="edgeStyle=orthogonalEdgeStyle;rounded=0;orthogonalLoop=1;jettySize=auto;html=1;" edge="1" parent="1" source="a-QrM22J6SxzKLUGZ9e7-12" target="a-QrM22J6SxzKLUGZ9e7-17">
          <mxGeometry relative="1" as="geometry" />
        </mxCell>
        <mxCell id="a-QrM22J6SxzKLUGZ9e7-24" style="edgeStyle=orthogonalEdgeStyle;rounded=0;orthogonalLoop=1;jettySize=auto;html=1;entryX=1;entryY=0.5;entryDx=0;entryDy=0;" edge="1" parent="1" source="a-QrM22J6SxzKLUGZ9e7-12" target="a-QrM22J6SxzKLUGZ9e7-4">
          <mxGeometry relative="1" as="geometry">
            <Array as="points">
              <mxPoint x="700" y="825" />
              <mxPoint x="700" y="490" />
            </Array>
          </mxGeometry>
        </mxCell>
        <mxCell id="a-QrM22J6SxzKLUGZ9e7-12" value="Have they run&amp;nbsp;&lt;div&gt;out of lives?&amp;nbsp;&lt;/div&gt;" style="html=1;whiteSpace=wrap;aspect=fixed;shape=isoRectangle;" vertex="1" parent="1">
          <mxGeometry x="525" y="780" width="150" height="90" as="geometry" />
        </mxCell>
        <mxCell id="a-QrM22J6SxzKLUGZ9e7-16" value="GAME OVER&amp;nbsp;" style="rounded=1;whiteSpace=wrap;html=1;" vertex="1" parent="1">
          <mxGeometry x="380" y="960" width="120" height="50" as="geometry" />
        </mxCell>
        <mxCell id="a-QrM22J6SxzKLUGZ9e7-17" value="" style="shape=waypoint;sketch=0;size=6;pointerEvents=1;points=[];fillColor=default;resizable=0;rotatable=0;perimeter=centerPerimeter;snapToPoint=1;" vertex="1" parent="1">
          <mxGeometry x="430" y="960" width="20" height="20" as="geometry" />
        </mxCell>
        <mxCell id="a-QrM22J6SxzKLUGZ9e7-20" style="edgeStyle=orthogonalEdgeStyle;rounded=0;orthogonalLoop=1;jettySize=auto;html=1;entryX=0.5;entryY=0.05;entryDx=0;entryDy=0;entryPerimeter=0;" edge="1" parent="1" source="a-QrM22J6SxzKLUGZ9e7-17" target="a-QrM22J6SxzKLUGZ9e7-17">
          <mxGeometry relative="1" as="geometry" />
        </mxCell>
        <mxCell id="a-QrM22J6SxzKLUGZ9e7-27" style="edgeStyle=orthogonalEdgeStyle;rounded=0;orthogonalLoop=1;jettySize=auto;html=1;exitX=0.5;exitY=1;exitDx=0;exitDy=0;entryX=0.5;entryY=-0.022;entryDx=0;entryDy=0;entryPerimeter=0;" edge="1" parent="1" source="a-QrM22J6SxzKLUGZ9e7-4" target="a-QrM22J6SxzKLUGZ9e7-5">
          <mxGeometry relative="1" as="geometry">
            <mxPoint x="441" y="550" as="targetPoint" />
          </mxGeometry>
        </mxCell>
        <mxCell id="a-QrM22J6SxzKLUGZ9e7-31" value="Yes" style="text;html=1;align=center;verticalAlign=middle;resizable=0;points=[];autosize=1;strokeColor=none;fillColor=none;" vertex="1" parent="1">
          <mxGeometry x="240" y="600" width="40" height="30" as="geometry" />
        </mxCell>
        <mxCell id="a-QrM22J6SxzKLUGZ9e7-32" value="No" style="text;html=1;align=center;verticalAlign=middle;resizable=0;points=[];autosize=1;strokeColor=none;fillColor=none;" vertex="1" parent="1">
          <mxGeometry x="600" y="600" width="40" height="30" as="geometry" />
        </mxCell>
        <mxCell id="a-QrM22J6SxzKLUGZ9e7-33" value="Yes" style="text;html=1;align=center;verticalAlign=middle;resizable=0;points=[];autosize=1;strokeColor=none;fillColor=none;" vertex="1" parent="1">
          <mxGeometry x="365" y="790" width="40" height="30" as="geometry" />
        </mxCell>
        <mxCell id="a-QrM22J6SxzKLUGZ9e7-34" value="Yes" style="text;html=1;align=center;verticalAlign=middle;resizable=0;points=[];autosize=1;strokeColor=none;fillColor=none;" vertex="1" parent="1">
          <mxGeometry x="485" y="790" width="40" height="30" as="geometry" />
        </mxCell>
        <mxCell id="a-QrM22J6SxzKLUGZ9e7-35" value="No" style="text;html=1;align=center;verticalAlign=middle;resizable=0;points=[];autosize=1;strokeColor=none;fillColor=none;" vertex="1" parent="1">
          <mxGeometry x="675" y="830" width="40" height="30" as="geometry" />
        </mxCell>
        <mxCell id="a-QrM22J6SxzKLUGZ9e7-36" value="No" style="text;html=1;align=center;verticalAlign=middle;resizable=0;points=[];autosize=1;strokeColor=none;fillColor=none;" vertex="1" parent="1">
          <mxGeometry x="180" y="830" width="40" height="30" as="geometry" />
        </mxCell>
      </root>
    </mxGraphModel>
  </diagram>
</mxfile>
